<?xml version="1.0" encoding="UTF-8" standalone="no"?>
<!DOCTYPE svg PUBLIC "-//W3C//DTD SVG 1.1//EN" "http://www.w3.org/Graphics/SVG/1.1/DTD/svg11.dtd">
<svg width="100%" height="100%" viewBox="0 0 82 84" version="1.1" xmlns="http://www.w3.org/2000/svg" xmlns:xlink="http://www.w3.org/1999/xlink" xml:space="preserve" xmlns:serif="http://www.serif.com/" style="fill-rule:evenodd;clip-rule:evenodd;stroke-linecap:round;stroke-linejoin:round;stroke-miterlimit:1.5;">
    <g transform="matrix(1,0,0,1,-1816.64,-990.451)">
        <g transform="matrix(0.940438,0,0,2.0318,1269,301.996)">
            <path d="M615.584,356.884C615.403,355.41 612.762,355.564 611.885,355.635C610.196,355.773 608.483,356.837 608.186,358.516C608.006,359.534 607.893,360.556 608.215,361.429C608.433,362.02 608.771,362.658 610.135,362.918C611.379,363.156 612.413,363.133 613.303,362.838C614.082,362.58 614.764,362.006 615.431,360.832C615.97,359.882 615.537,356.674 615.584,356.884C615.616,357.027 615.523,359.436 615.792,361.162C615.922,361.996 615.408,362.377 616.463,362.825C617.181,363.13 618.343,362.93 618.38,362.487" style="fill:none;stroke:black;stroke-width:0.63px;"/>
        </g>
        <g transform="matrix(0.940438,0,0,2.0318,1298.42,302.261)">
            <path d="M615.584,356.884C615.403,355.41 612.762,355.564 611.885,355.635C610.196,355.773 608.483,356.837 608.186,358.516C608.006,359.534 607.893,360.556 608.215,361.429C608.433,362.02 608.771,362.658 610.135,362.918C611.379,363.156 612.413,363.133 613.303,362.838C614.082,362.58 614.764,362.006 615.431,360.832C615.97,359.882 615.537,356.674 615.584,356.884C615.616,357.027 615.523,359.436 615.792,361.162C615.922,361.996 615.408,362.377 616.463,362.825C617.181,363.13 618.343,362.93 618.38,362.487" style="fill:none;stroke:black;stroke-width:0.63px;"/>
        </g>
        <g transform="matrix(1,0,0,1,1239.83,678.827)">
            <path d="M606.082,334.149C612.694,332.264 618.446,328.231 623.667,322.869C633.981,330.495 643.833,338.937 658.043,339.69" style="fill:none;stroke:black;stroke-width:1px;"/>
        </g>
        <g transform="matrix(1,0,0,1,1239.83,678.827)">
            <path d="M611.953,329.239L613.075,322.869L599.825,326.07" style="fill:none;stroke:black;stroke-width:1px;"/>
        </g>
        <g transform="matrix(1,0,0,1,1239.83,678.827)">
            <path d="M604.08,321.867C602.162,320.107 601.724,317.39 603.679,313.123" style="fill:none;stroke:black;stroke-width:1px;"/>
        </g>
        <g transform="matrix(1,0,0,1,1239.83,678.827)">
            <path d="M609.253,313.123C607.78,315.94 607.878,318.505 609.253,320.866" style="fill:none;stroke:black;stroke-width:1px;"/>
        </g>
        <g transform="matrix(0.999443,0.00939719,0.00939719,0.84159,1245.3,725.942)">
            <path d="M643.128,339.69L642.661,347.566" style="fill:none;stroke:black;stroke-width:1.07px;"/>
        </g>
        <g transform="matrix(1.00082,-0.0137719,-0.0137719,1.23215,1250.66,632.942)">
            <path d="M643.128,339.69L642.661,347.566" style="fill:none;stroke:black;stroke-width:0.9px;"/>
        </g>
        <g transform="matrix(2.16972,0,0,1.34715,546.346,551.579)">
            <path d="M591.436,367.962C592.039,366.57 593.537,367.444 593.586,368.163C593.789,371.133 593.01,382.647 592.652,385.785C592.587,386.351 591.98,387.19 591.436,386.986" style="fill:none;stroke:black;stroke-width:0.55px;"/>
        </g>
        <g transform="matrix(2.16972,0,0,1.41462,541.476,527.17)">
            <path d="M601.41,367.591C600.835,373.789 600.558,379.847 600.475,385.813" style="fill:none;stroke:black;stroke-width:0.55px;"/>
        </g>
        <g transform="matrix(2.16972,0,0,1.53684,540.806,482.386)">
            <path d="M594.602,374.8C596.261,375.831 598.463,375.791 600.943,375.2" style="fill:none;stroke:black;stroke-width:0.53px;"/>
        </g>
        <g transform="matrix(1.28035,0,0,1.71623,1072.22,406.274)">
            <path d="M610.643,377.536C609.914,377.114 607.947,377.125 607.052,377.549C606.135,377.982 605.777,378.985 605.781,379.972C605.784,380.802 605.767,382.517 605.815,383.344C605.934,385.373 606.447,385.529 607.431,385.893C608.269,386.203 610.003,386.177 610.715,385.766C611.427,385.354 611.898,384.829 611.938,383.981C611.984,383.003 611.871,380.574 611.85,379.591C611.829,378.687 611.371,377.959 610.643,377.536Z" style="fill:none;stroke:black;stroke-width:0.66px;"/>
        </g>
        <g transform="matrix(1.21463,0,0,1.5135,1127.93,485.86)">
            <path d="M617.308,380.59C620.375,381.325 624.263,380.15 624.768,378.661C625.511,376.469 623.353,375.944 621.961,375.715C620.23,375.431 618.985,376.165 618.342,377.374C617.791,378.41 618.261,380.153 618.765,381.561C619.8,384.456 622.979,385.776 625.979,383.867" style="fill:none;stroke:black;stroke-width:0.73px;"/>
        </g>
        <g transform="matrix(1.49402,0,0,1.76946,936.416,395.769)">
            <path d="M620.451,355.468L620.701,363.788L620.505,357.294C621.302,355.286 623.208,354.866 624.08,356.667" style="fill:none;stroke:black;stroke-width:0.61px;"/>
        </g>
        <g transform="matrix(1.28174,0,0,1.91213,1047.17,345.089)">
            <path d="M628.684,355.45C628.684,355.45 628.49,361.876 628.884,362.417C629.579,363.369 631.308,363.439 632.14,362.692C632.598,362.28 633.197,361.686 633.243,360.756C633.302,359.578 633.356,355.45 633.356,355.45C633.356,355.45 633.313,360.03 633.229,360.94C633.117,362.166 633.209,362.785 633.491,363.028C633.838,363.326 634.942,363.385 634.962,362.619" style="fill:none;stroke:black;stroke-width:0.61px;"/>
        </g>
        <g transform="matrix(1.28174,0,0,1.91213,1052.68,374.368)">
            <path d="M628.684,355.45C628.684,355.45 628.49,361.876 628.884,362.417C629.579,363.369 631.308,363.439 632.14,362.692C632.598,362.28 633.197,361.686 633.243,360.756C633.302,359.578 633.356,355.45 633.356,355.45C633.356,355.45 633.313,360.03 633.229,360.94C633.117,362.166 633.209,362.785 633.491,363.028C633.838,363.326 634.942,363.385 634.962,362.619" style="fill:none;stroke:black;stroke-width:0.61px;"/>
        </g>
        <g transform="matrix(1.24061,0,0,1.42962,1088.33,520.843)">
            <path d="M646.859,354.946C647.376,353.745 645.835,353.154 644.876,353.154C644.211,353.154 643.075,353.231 642.154,353.899C641.354,354.478 641.458,355.732 641.994,356.441C643.002,357.772 645.871,357.853 646.706,358.97C647.123,359.528 647.493,360.656 646.926,361.535C646.037,362.912 644.69,363.625 643.869,363.559C641.918,363.403 640.616,362.604 640.866,360.556" style="fill:none;stroke:black;stroke-width:0.75px;"/>
        </g>
        <g transform="matrix(1.24061,0,0,1.42962,1072.9,548.917)">
            <path d="M646.859,354.946C647.376,353.745 645.835,353.154 644.876,353.154C644.211,353.154 643.075,353.231 642.154,353.899C641.354,354.478 641.458,355.732 641.994,356.441C643.002,357.772 645.871,357.853 646.706,358.97C647.123,359.528 647.493,360.656 646.926,361.535C646.037,362.912 644.69,363.625 643.869,363.559C641.918,363.403 640.616,362.604 640.866,360.556" style="fill:none;stroke:black;stroke-width:0.75px;"/>
        </g>
        <g transform="matrix(1,0,0,1,1242.49,673.377)">
            <path d="M640.866,351.378L642.451,349.542" style="fill:none;stroke:black;stroke-width:1px;"/>
        </g>
        <g transform="matrix(1,0,0,1,1239.83,678.827)">
            <path d="M589.809,334.211C593.152,342.205 605.583,336.941 605.938,329.57C606.046,327.303 598.93,329.445 598.794,331.37C598.471,335.944 593.855,357.713 589.279,361.389C584.763,365.018 580.402,365.527 578.077,364.028C575.752,362.529 579.294,355.424 581.467,353.859C583.639,352.295 585.963,352.859 588.114,353.642C589.709,354.222 590.934,355.921 591.373,357.553C591.992,359.854 595.989,369.731 607.586,363.027" style="fill:none;stroke:black;stroke-width:1px;"/>
        </g>
    </g>
</svg>
